<?xml version="1.0" encoding="utf-8"?>
<!-- Generator: Adobe Illustrator 27.3.1, SVG Export Plug-In . SVG Version: 6.00 Build 0)  -->
<svg version="1.1" id="Camada_1" xmlns="http://www.w3.org/2000/svg" xmlns:xlink="http://www.w3.org/1999/xlink" x="0px" y="0px"
	 viewBox="0 0 1000 1000" style="enable-background:new 0 0 1000 1000;" xml:space="preserve">
<style type="text/css">
	.st0{fill:#5990B5;}
	.st1{fill:#6A9DC0;}
</style>
<rect y="0" class="st0" width="1000" height="1000"/>
<g>
	<circle class="st1" cx="185.62" cy="215.21" r="21.96"/>
	<circle class="st1" cx="310.21" cy="152.91" r="21.96"/>
	<circle class="st1" cx="521.96" cy="40.57" r="21.96"/>
	<circle class="st1" cx="419.83" cy="307.49" r="21.96"/>
	<circle class="st1" cx="453.53" cy="557.7" r="21.96"/>
	<circle class="st1" cx="382.21" cy="722.13" r="21.96"/>
	<circle class="st1" cx="521.96" cy="797.7" r="21.96"/>
	<circle class="st1" cx="375.91" cy="797.7" r="21.96"/>
	<circle class="st1" cx="448.09" cy="138.62" r="21.96"/>
	<circle class="st1" cx="572.68" cy="152.91" r="21.96"/>
	<circle class="st1" cx="673.79" cy="193.26" r="21.96"/>
	<circle class="st1" cx="732" cy="259.13" r="21.96"/>
	<circle class="st1" cx="775.91" cy="341.85" r="21.96"/>
	<circle class="st1" cx="814.72" cy="478.04" r="21.96"/>
	<circle class="st1" cx="555.32" cy="438.21" r="21.96"/>
	<circle class="st1" cx="572.68" cy="312.6" r="21.96"/>
	<circle class="st1" cx="288.26" cy="409.62" r="21.96"/>
	<circle class="st1" cx="304.6" cy="471.91" r="21.96"/>
	<circle class="st1" cx="320.94" cy="649.62" r="21.96"/>
	<circle class="st1" cx="533.36" cy="617.96" r="21.96"/>
	<circle class="st1" cx="382.21" cy="460.17" r="21.96"/>
	<circle class="st1" cx="229.53" cy="627.66" r="21.96"/>
	<circle class="st1" cx="82.47" cy="707.32" r="21.96"/>
	<circle class="st1" cx="99.83" cy="500" r="21.96"/>
	<circle class="st1" cx="117.19" cy="329.45" r="21.96"/>
	<circle class="st1" cx="260.68" cy="303.04" r="21.96"/>
	<circle class="st1" cx="156.51" cy="116.66" r="21.96"/>
	<circle class="st1" cx="60.51" cy="98.28" r="21.96"/>
	<circle class="st1" cx="282.64" cy="72.74" r="21.96"/>
	<circle class="st1" cx="500" cy="500" r="21.96"/>
	<circle class="st1" cx="500" cy="500" r="21.96"/>
	<circle class="st1" cx="740.71" cy="871.62" r="21.96"/>
	<circle class="st1" cx="511.4" cy="903.48" r="21.96"/>
	<circle class="st1" cx="282.64" cy="903.48" r="21.96"/>
	<circle class="st1" cx="126.38" cy="859.57" r="21.96"/>
	<circle class="st1" cx="238.72" cy="787.04" r="21.96"/>
	<circle class="st1" cx="784.62" cy="627.66" r="21.96"/>
	<circle class="st1" cx="673.79" cy="693.53" r="21.96"/>
	<circle class="st1" cx="701.26" cy="557.7" r="21.96"/>
	<circle class="st1" cx="607.85" cy="529.13" r="21.96"/>
	<circle class="st1" cx="565.87" cy="557.7" r="21.96"/>
	<circle class="st1" cx="884.55" cy="237.17" r="21.96"/>
	<circle class="st1" cx="674.3" cy="307.49" r="21.96"/>
	<circle class="st1" cx="651.83" cy="482.13" r="21.96"/>
	<circle class="st1" cx="792.77" cy="285.53" r="21.96"/>
	<circle class="st1" cx="701.26" cy="341.85" r="21.96"/>
	<circle class="st1" cx="710.04" cy="403.39" r="21.96"/>
	<circle class="st1" cx="850.7" cy="28.83" r="21.96"/>
	<circle class="st1" cx="762.67" cy="62.53" r="21.96"/>
	<circle class="st1" cx="840.64" cy="109" r="21.96"/>
	<circle class="st1" cx="784.62" cy="142.19" r="21.96"/>
	<circle class="st1" cx="987.92" cy="215.21" r="21.96"/>
	<circle class="st1" cx="959.35" cy="45.98" r="21.96"/>
	<circle class="st1" cx="928.47" cy="394.3" r="21.96"/>
	<circle class="st1" cx="944.01" cy="529.13" r="21.96"/>
	<circle class="st1" cx="900.09" cy="596" r="21.96"/>
	<circle class="st1" cx="950.43" cy="729.28" r="21.96"/>
	<circle class="st1" cx="894.62" cy="758.95" r="21.96"/>
	<circle class="st1" cx="894.62" cy="775.74" r="21.96"/>
	<circle class="st1" cx="894.62" cy="849.66" r="21.96"/>
	<circle class="st1" cx="708.29" cy="819.66" r="21.96"/>
	<circle class="st1" cx="784.62" cy="775.74" r="21.96"/>
	<circle class="st1" cx="894.62" cy="893.57" r="21.96"/>
	<circle class="st1" cx="977.03" cy="1012.28" r="21.96"/>
	<circle class="st1" cx="828.74" cy="943.05" r="21.96"/>
	<circle class="st1" cx="629.87" cy="943.05" r="21.96"/>
	<circle class="st1" cx="629.87" cy="893.57" r="21.96"/>
	<circle class="st1" cx="594.64" cy="775.74" r="21.96"/>
	<circle class="st1" cx="441.79" cy="744.09" r="21.96"/>
	<circle class="st1" cx="431.57" cy="930.47" r="21.96"/>
	<circle class="st1" cx="353.96" cy="915.53" r="21.96"/>
	<circle class="st1" cx="310.21" cy="797.7" r="21.96"/>
	<circle class="st1" cx="95.23" cy="1004.79" r="21.96"/>
	<circle class="st1" cx="45.21" cy="899.13" r="21.96"/>
	<circle class="st1" cx="251.49" cy="758.95" r="21.96"/>
	<circle class="st1" cx="178.47" cy="700.17" r="21.96"/>
	<circle class="st1" cx="99.83" cy="574.04" r="21.96"/>
	<circle class="st1" cx="207.57" cy="535.74" r="21.96"/>
	<circle class="st1" cx="202.21" cy="457.69" r="21.96"/>
	<circle class="st1" cx="31.18" cy="363.81" r="21.96"/>
	<circle class="st1" cx="45.21" cy="341.85" r="21.96"/>
	<circle class="st1" cx="99.83" cy="211.01" r="21.96"/>
	<circle class="st1" cx="260.68" cy="372.34" r="21.96"/>
	<circle class="st1" cx="216.77" cy="325" r="21.96"/>
	<circle class="st1" cx="348.51" cy="285.53" r="21.96"/>
</g>
</svg>
